<svg width="40" height="39" viewBox="0 0 40 39" fill="none" xmlns="http://www.w3.org/2000/svg">
<path d="M20.1938 1.34012C24.1628 1.34012 28.1102 3.19358 31.6172 6.69518C35.2431 10.3211 37.0939 14.4117 36.9669 18.5212C36.8426 22.6604 34.7163 26.905 30.8229 30.7957C26.7377 34.8809 22.4958 36.9505 18.2134 36.9505C14.2038 36.9505 10.3537 35.1321 6.76565 31.5468C4.89867 29.6798 3.49371 27.7129 2.58589 25.7027C1.70779 23.7546 1.2917 21.7472 1.34844 19.7343C1.40788 17.7133 1.94555 15.6653 2.94523 13.6443C3.98004 11.5531 5.52009 9.48349 7.51676 7.48682C11.5398 3.46377 15.9222 1.33741 20.1938 1.33741M20.1938 0C15.5602 0 10.8481 2.26145 6.56571 6.54117C-1.91809 15.0277 -2.19368 24.4896 5.8173 32.4951C9.66473 36.3426 13.8337 38.2933 18.2107 38.2933C22.8606 38.2933 27.424 36.0913 31.7685 31.744C35.9105 27.6075 38.1692 23.0468 38.307 18.5617C38.4448 14.0739 36.459 9.64019 32.5629 5.74953C28.8019 1.98856 24.5249 0 20.1938 0Z" fill="#F58220"/>
<path d="M23.3631 7.46791V8.81073C26.0947 8.81073 28.3615 9.6456 30.1015 11.2991C31.8929 13.004 33.0925 15.5248 33.6707 18.7995C34.9838 26.2458 31.7497 31.2199 24.7951 32.4465C23.9062 32.6032 23.0389 32.6816 22.2148 32.6816C19.4806 32.6816 17.1921 31.8332 15.4116 30.1553C13.577 28.4289 12.3585 25.908 11.7884 22.6604C11.1237 18.8994 11.5668 15.8058 13.1042 13.4687C14.6253 11.1586 17.1705 9.67262 20.6721 9.0566C21.6042 8.88908 22.5093 8.80803 23.3631 8.80803V7.46521M23.3604 7.46791C22.431 7.46791 21.4529 7.55707 20.4343 7.7381C12.6422 9.11064 9.0082 14.6359 10.4645 22.8928C11.7209 30.0202 16.0276 34.0217 22.2121 34.0217C23.1118 34.0217 24.0494 33.9379 25.0248 33.765C32.7034 32.4114 36.4293 26.7294 34.9892 18.5671C33.7247 11.3883 29.5503 7.46521 23.3604 7.46521V7.46791Z" fill="#755195"/>
<path d="M19.1185 5.87381C21.9744 5.87381 24.9329 7.3274 27.6834 10.0752C30.3231 12.7149 31.7632 15.5951 31.8469 18.4104C31.9334 21.1933 30.6851 23.9546 28.24 26.3997C25.8596 28.7801 23.1902 30.0364 20.5154 30.0364C17.6325 30.0364 14.6551 28.5855 11.9154 25.8432C9.19192 23.1197 7.77886 20.299 7.71671 17.4674C7.65998 14.744 8.92714 12.0043 11.3858 9.54562C13.8256 7.10855 16.4275 5.87111 19.1185 5.87111M19.1185 4.53369C16.06 4.53369 13.1393 5.90353 10.4375 8.59997C7.71671 11.3207 6.31175 14.4008 6.3766 17.4999C6.44414 20.688 7.9869 23.8168 10.9643 26.7942C13.9661 29.796 17.2677 31.382 20.5127 31.382C23.5495 31.382 26.5513 29.9878 29.1856 27.3508C34.7163 21.8201 34.5082 15.0088 28.629 9.12954C25.6246 6.12238 22.331 4.53369 19.1158 4.53369H19.1185Z" fill="#ED145B"/>
<path d="M15.29 30.0364C14.4227 29.1881 13.6959 28.1587 13.115 26.9536C12.7124 26.6105 12.3099 26.243 11.9127 25.8486C11.5425 25.4784 11.1967 25.1056 10.8752 24.7354C11.1805 25.854 11.5723 26.878 12.0424 27.8074C13.0988 28.7233 14.1849 29.469 15.2873 30.0391L15.29 30.0364Z" fill="#755195"/>
<path d="M22.8254 8.28389C27.4888 8.28389 31.3173 9.56456 33.8922 11.9881C35.1486 13.1715 36.1185 14.6278 36.7751 16.3192C37.4532 18.07 37.7964 20.0775 37.7964 22.2849C37.7964 24.4923 37.4532 26.4997 36.7751 28.2532C36.1212 29.9446 35.1513 31.4009 33.8922 32.5843C31.3173 35.0079 27.4888 36.2885 22.8254 36.2885C20.4154 36.2885 18.2404 35.967 16.3545 35.3321C14.5416 34.7215 12.9907 33.8137 11.7424 32.6383C9.2 30.2364 7.90852 26.7537 7.90852 22.2849C7.90852 17.816 9.2 14.336 11.7424 11.9341C12.988 10.7588 14.5389 9.85096 16.3545 9.24034C18.2377 8.60541 20.4154 8.28119 22.8227 8.28119M22.8254 6.94647C12.4963 6.94647 6.57111 12.5393 6.57111 22.2876C6.57111 32.0358 12.4963 37.6314 22.8281 37.6314C33.16 37.6314 39.1392 31.8953 39.1392 22.2876C39.1392 12.6798 33.0411 6.94647 22.8281 6.94647H22.8254Z" fill="#009B90"/>
<path d="M25.8893 8.48921C26.8187 8.6135 27.7104 8.79992 28.5452 9.04579C27.8481 8.35412 27.1349 7.7381 26.4081 7.20043C25.4705 7.05993 24.4843 6.97618 23.4576 6.94916C24.2736 7.35173 25.0896 7.86508 25.8893 8.48651V8.48921Z" fill="#ED145B"/>
<path d="M26.2757 36.0319C25.1868 36.2021 24.0332 36.2912 22.8227 36.2912C22.6849 36.2912 22.5525 36.2858 22.4121 36.2831C21.0179 36.7289 19.6129 36.9532 18.208 36.9532C17.746 36.9532 17.2839 36.9289 16.8273 36.8802C18.5565 37.3612 20.4883 37.6124 22.6066 37.6287C23.8386 37.2531 25.0599 36.7208 26.273 36.0319H26.2757Z" fill="#F58220"/>
</svg>
