<svg width="21" height="21" viewBox="0 0 21 21" fill="none" xmlns="http://www.w3.org/2000/svg">
<path d="M20.4036 4.29118C21.1904 3.50444 21.1904 2.22677 20.4036 1.44003C19.6169 0.65329 18.3392 0.65329 17.5525 1.44003L10.925 8.07384L4.29118 1.44633C3.50444 0.659584 2.22677 0.659584 1.44003 1.44633C0.65329 2.23307 0.65329 3.51073 1.44003 4.29748L8.07384 10.925L1.44633 17.5588C0.659584 18.3455 0.659584 19.6232 1.44633 20.4099C2.23307 21.1967 3.51074 21.1967 4.29748 20.4099L10.925 13.7761L17.5588 20.4036C18.3455 21.1904 19.6232 21.1904 20.4099 20.4036C21.1967 19.6169 21.1967 18.3392 20.4099 17.5525L13.7761 10.925L20.4036 4.29118Z" fill="#EE2452"/>
</svg>
