<svg width="95" height="95" viewBox="0 0 95 95" fill="none" xmlns="http://www.w3.org/2000/svg">
<path d="M77.1762 38.5881C77.1762 47.1035 74.4119 54.9695 69.7554 61.3514L93.2422 84.8567C95.5612 87.1757 95.5612 90.9418 93.2422 93.2607C90.9232 95.5798 87.1571 95.5798 84.8382 93.2607L61.3514 69.7554C54.9695 74.4305 47.1034 77.1762 38.5881 77.1762C17.2719 77.1762 0 59.9043 0 38.5881C0 17.2719 17.2719 0 38.5881 0C59.9043 0 77.1762 17.2719 77.1762 38.5881ZM38.5881 65.3029C42.0963 65.3029 45.5702 64.6119 48.8114 63.2694C52.0526 61.9268 54.9976 59.959 57.4783 57.4783C59.959 54.9976 61.9268 52.0526 63.2694 48.8114C64.6119 45.5702 65.3029 42.0963 65.3029 38.5881C65.3029 35.0799 64.6119 31.606 63.2694 28.3648C61.9268 25.1236 59.959 22.1786 57.4783 19.6979C54.9976 17.2172 52.0526 15.2494 48.8114 13.9068C45.5702 12.5643 42.0963 11.8733 38.5881 11.8733C35.0799 11.8733 31.606 12.5643 28.3648 13.9068C25.1236 15.2494 22.1786 17.2172 19.6979 19.6979C17.2172 22.1786 15.2494 25.1236 13.9068 28.3648C12.5643 31.606 11.8733 35.0799 11.8733 38.5881C11.8733 42.0963 12.5643 45.5702 13.9068 48.8114C15.2494 52.0526 17.2172 54.9976 19.6979 57.4783C22.1786 59.959 25.1236 61.9268 28.3648 63.2694C31.606 64.6119 35.0799 65.3029 38.5881 65.3029Z" fill="#ED145B"/>
</svg>
