<svg width="34" height="34" viewBox="0 0 34 34" fill="none" xmlns="http://www.w3.org/2000/svg">
<path d="M32.1689 5.66134C33.4632 4.36702 33.4632 2.26505 32.1689 0.970737C30.8746 -0.323579 28.7726 -0.323579 27.4783 0.970737L16.575 11.8844L5.66134 0.981091C4.36702 -0.313225 2.26505 -0.313225 0.970737 0.981091C-0.323579 2.27541 -0.323579 4.37738 0.970737 5.67169L11.8844 16.575L0.981092 27.4887C-0.313224 28.783 -0.313224 30.885 0.981092 32.1793C2.27541 33.4736 4.37738 33.4736 5.67169 32.1793L16.575 21.2656L27.4887 32.1689C28.783 33.4632 30.885 33.4632 32.1793 32.1689C33.4736 30.8746 33.4736 28.7726 32.1793 27.4783L21.2656 16.575L32.1689 5.66134Z" fill="#EE2452"/>
</svg>
