<svg width="36" height="36" viewBox="0 0 36 36" fill="none" xmlns="http://www.w3.org/2000/svg">
<path d="M29.25 14.625C29.25 17.8523 28.2023 20.8336 26.4375 23.2523L35.3391 32.1609C36.218 33.0398 36.218 34.4672 35.3391 35.3461C34.4602 36.225 33.0328 36.225 32.1539 35.3461L23.2523 26.4375C20.8336 28.2094 17.8523 29.25 14.625 29.25C6.54609 29.25 0 22.7039 0 14.625C0 6.54609 6.54609 0 14.625 0C22.7039 0 29.25 6.54609 29.25 14.625ZM14.625 24.75C15.9546 24.75 17.2712 24.4881 18.4997 23.9793C19.7281 23.4705 20.8443 22.7246 21.7845 21.7845C22.7246 20.8443 23.4705 19.7281 23.9793 18.4997C24.4881 17.2712 24.75 15.9546 24.75 14.625C24.75 13.2954 24.4881 11.9788 23.9793 10.7503C23.4705 9.52191 22.7246 8.40574 21.7845 7.46554C20.8443 6.52535 19.7281 5.77955 18.4997 5.27072C17.2712 4.76189 15.9546 4.5 14.625 4.5C13.2954 4.5 11.9788 4.76189 10.7503 5.27072C9.52191 5.77955 8.40574 6.52535 7.46554 7.46554C6.52535 8.40574 5.77955 9.52191 5.27072 10.7503C4.76189 11.9788 4.5 13.2954 4.5 14.625C4.5 15.9546 4.76189 17.2712 5.27072 18.4997C5.77955 19.7281 6.52535 20.8443 7.46554 21.7845C8.40574 22.7246 9.52191 23.4705 10.7503 23.9793C11.9788 24.4881 13.2954 24.75 14.625 24.75Z" fill="#ED145B"/>
</svg>
