<svg width="42" height="31" viewBox="0 0 42 31" fill="none" xmlns="http://www.w3.org/2000/svg">
<path d="M5.14333 3.8575C4.43613 3.8575 3.8575 4.43613 3.8575 5.14333V6.91939L17.7204 18.299C19.3839 19.6652 21.7708 19.6652 23.4343 18.299L37.2892 6.91939V5.14333C37.2892 4.43613 36.7105 3.8575 36.0033 3.8575H5.14333ZM3.8575 11.91V25.7167C3.8575 26.4239 4.43613 27.0025 5.14333 27.0025H36.0033C36.7105 27.0025 37.2892 26.4239 37.2892 25.7167V11.91L25.8774 21.2805C22.7914 23.812 18.3472 23.812 15.2693 21.2805L3.8575 11.91ZM0 5.14333C0 2.30646 2.30646 0 5.14333 0H36.0033C38.8402 0 41.1467 2.30646 41.1467 5.14333V25.7167C41.1467 28.5535 38.8402 30.86 36.0033 30.86H5.14333C2.30646 30.86 0 28.5535 0 25.7167V5.14333Z" fill="white"/>
</svg>
