<svg width="52" height="37" viewBox="0 0 52 37" fill="none" xmlns="http://www.w3.org/2000/svg">
<path d="M51.8 23.125C51.8 30.7909 45.5909 37 37.925 37H37C34.9534 37 33.3 35.3466 33.3 33.3C33.3 31.2534 34.9534 29.6 37 29.6H37.925C41.4978 29.6 44.4 26.6978 44.4 23.125V22.2H37C32.9184 22.2 29.6 18.8816 29.6 14.8V7.4C29.6 3.31844 32.9184 0 37 0H44.4C48.4816 0 51.8 3.31844 51.8 7.4V11.1V14.8V23.125ZM22.2 23.125C22.2 30.7909 15.9909 37 8.325 37H7.4C5.35344 37 3.7 35.3466 3.7 33.3C3.7 31.2534 5.35344 29.6 7.4 29.6H8.325C11.8978 29.6 14.8 26.6978 14.8 23.125V22.2H7.4C3.31844 22.2 0 18.8816 0 14.8V7.4C0 3.31844 3.31844 0 7.4 0H14.8C18.8816 0 22.2 3.31844 22.2 7.4V11.1V14.8V23.125Z" fill="#9C9C9C"/>
</svg>
