<svg width="31" height="31" viewBox="0 0 31 31" fill="none" xmlns="http://www.w3.org/2000/svg">
<path d="M4.40857 0C1.97697 0 0 1.97697 0 4.40857V26.4514C0 28.883 1.97697 30.86 4.40857 30.86H11.173V20.8167H7.5359V15.43H11.173V13.1086C11.173 7.10882 13.887 4.32591 19.7835 4.32591C20.8994 4.32591 22.8281 4.54634 23.6203 4.76677V9.64375C23.207 9.60242 22.4837 9.57487 21.5813 9.57487C18.6882 9.57487 17.5723 10.6701 17.5723 13.515V15.43H23.331L22.3391 20.8167H17.5654V30.86H26.4514C28.883 30.86 30.86 28.883 30.86 26.4514V4.40857C30.86 1.97697 28.883 0 26.4514 0H4.40857Z" fill="white"/>
</svg>
