<svg width="35" height="31" viewBox="0 0 35 31" fill="none" xmlns="http://www.w3.org/2000/svg">
<path d="M27.1022 0.16482C27.9076 -0.17077 28.8272 0.0171599 29.4446 0.627933L33.7402 4.92348C34.1429 5.32619 34.3711 5.86984 34.3711 6.44035C34.3711 7.01085 34.1429 7.5545 33.7402 7.95721L29.4446 12.2528C28.8272 12.8702 27.9076 13.0515 27.1022 12.7159C26.2968 12.3803 25.7733 11.6017 25.7733 10.7292V8.59483H23.6255C22.9476 8.59483 22.31 8.91029 21.9073 9.45394L19.0615 13.2461L16.3768 9.66872L18.4709 6.87661C19.6857 5.25236 21.5985 4.29928 23.6255 4.29928H25.7733V2.15151C25.7733 1.28569 26.2968 0.500409 27.1022 0.16482ZM11.0073 16.8302L13.6921 20.4076L11.598 23.1997C10.3831 24.8239 8.47028 25.777 6.44332 25.777H2.14777C0.959786 25.777 0 24.8172 0 23.6292C0 22.4413 0.959786 21.4815 2.14777 21.4815H6.44332C7.12121 21.4815 7.75883 21.166 8.16154 20.6224L11.0073 16.8302ZM29.4379 29.4484C28.8204 30.0659 27.9009 30.2471 27.0955 29.9115C26.2901 29.5759 25.7666 28.7973 25.7666 27.9248V25.777H23.6255C21.5985 25.777 19.6857 24.8239 18.4709 23.1997L8.16154 9.45394C7.75883 8.91029 7.12121 8.59483 6.44332 8.59483H2.14777C0.959786 8.59483 0 7.63505 0 6.44706C0 5.25907 0.959786 4.29928 2.14777 4.29928H6.44332C8.47028 4.29928 10.3831 5.25236 11.598 6.87661L21.9073 20.6224C22.31 21.166 22.9476 21.4815 23.6255 21.4815H25.7733V19.3337C25.7733 18.4679 26.2968 17.6826 27.1022 17.347C27.9076 17.0114 28.8272 17.1993 29.4446 17.8101L33.7402 22.1057C34.1429 22.5084 34.3711 23.052 34.3711 23.6225C34.3711 24.193 34.1429 24.7367 33.7402 25.1394L29.4446 29.4349L29.4379 29.4484Z" fill="#EE2452"/>
</svg>
