<svg width="36" height="31" viewBox="0 0 36 31" fill="none" xmlns="http://www.w3.org/2000/svg">
<path d="M0 2.57143C0 1.14911 1.14911 0 2.57143 0H33.4286C34.8509 0 36 1.14911 36 2.57143C36 3.99375 34.8509 5.14286 33.4286 5.14286H2.57143C1.14911 5.14286 0 3.99375 0 2.57143ZM0 15.4286C0 14.0062 1.14911 12.8571 2.57143 12.8571H33.4286C34.8509 12.8571 36 14.0062 36 15.4286C36 16.8509 34.8509 18 33.4286 18H2.57143C1.14911 18 0 16.8509 0 15.4286ZM36 28.2857C36 29.708 34.8509 30.8571 33.4286 30.8571H2.57143C1.14911 30.8571 0 29.708 0 28.2857C0 26.8634 1.14911 25.7143 2.57143 25.7143H33.4286C34.8509 25.7143 36 26.8634 36 28.2857Z" fill="white"/>
</svg>
