<svg width="52" height="37" viewBox="0 0 52 37" fill="none" xmlns="http://www.w3.org/2000/svg">
<path d="M0 13.875C0 6.20906 6.20906 0 13.875 0H14.8C16.8466 0 18.5 1.65344 18.5 3.7C18.5 5.74656 16.8466 7.4 14.8 7.4H13.875C10.3022 7.4 7.4 10.3022 7.4 13.875V14.8H14.8C18.8816 14.8 22.2 18.1184 22.2 22.2V29.6C22.2 33.6816 18.8816 37 14.8 37H7.4C3.31844 37 0 33.6816 0 29.6V25.9V22.2V13.875ZM29.6 13.875C29.6 6.20906 35.8091 0 43.475 0H44.4C46.4466 0 48.1 1.65344 48.1 3.7C48.1 5.74656 46.4466 7.4 44.4 7.4H43.475C39.9022 7.4 37 10.3022 37 13.875V14.8H44.4C48.4816 14.8 51.8 18.1184 51.8 22.2V29.6C51.8 33.6816 48.4816 37 44.4 37H37C32.9184 37 29.6 33.6816 29.6 29.6V25.9V22.2V13.875Z" fill="#9C9C9C"/>
</svg>
