<svg width="8" height="28" viewBox="0 0 8 28" fill="none" xmlns="http://www.w3.org/2000/svg">
<path d="M3.99999 20.7407C3.03735 20.7407 2.11414 21.1231 1.43346 21.8038C0.752768 22.4845 0.370361 23.4077 0.370361 24.3704C0.370361 25.333 0.752768 26.2562 1.43346 26.9369C2.11414 27.6176 3.03735 28 3.99999 28C4.96263 28 5.88584 27.6176 6.56653 26.9369C7.24721 26.2562 7.62962 25.333 7.62962 24.3704C7.62962 23.4077 7.24721 22.4845 6.56653 21.8038C5.88584 21.1231 4.96263 20.7407 3.99999 20.7407ZM3.99999 10.3704C3.03735 10.3704 2.11414 10.7528 1.43346 11.4335C0.752768 12.1142 0.370361 13.0374 0.370361 14C0.370361 14.9626 0.752768 15.8858 1.43346 16.5665C2.11414 17.2472 3.03735 17.6296 3.99999 17.6296C4.96263 17.6296 5.88584 17.2472 6.56653 16.5665C7.24721 15.8858 7.62962 14.9626 7.62962 14C7.62962 13.0374 7.24721 12.1142 6.56653 11.4335C5.88584 10.7528 4.96263 10.3704 3.99999 10.3704ZM7.62962 3.62963C7.62962 2.66699 7.24721 1.74378 6.56653 1.06309C5.88584 0.382406 4.96263 0 3.99999 0C3.03735 0 2.11414 0.382406 1.43346 1.06309C0.752768 1.74378 0.370361 2.66699 0.370361 3.62963C0.370361 4.59227 0.752768 5.51548 1.43346 6.19617C2.11414 6.87685 3.03735 7.25926 3.99999 7.25926C4.96263 7.25926 5.88584 6.87685 6.56653 6.19617C7.24721 5.51548 7.62962 4.59227 7.62962 3.62963Z" fill="#ED145B"/>
</svg>
