<svg width="50" height="50" viewBox="0 0 50 50" fill="none" xmlns="http://www.w3.org/2000/svg">
<path d="M17.8571 3.57143C17.8571 1.59598 16.2612 0 14.2857 0C12.3103 0 10.7143 1.59598 10.7143 3.57143V10.7143H3.57143C1.59598 10.7143 0 12.3103 0 14.2857C0 16.2612 1.59598 17.8571 3.57143 17.8571H14.2857C16.2612 17.8571 17.8571 16.2612 17.8571 14.2857V3.57143ZM3.57143 32.1429C1.59598 32.1429 0 33.7388 0 35.7143C0 37.6897 1.59598 39.2857 3.57143 39.2857H10.7143V46.4286C10.7143 48.404 12.3103 50 14.2857 50C16.2612 50 17.8571 48.404 17.8571 46.4286V35.7143C17.8571 33.7388 16.2612 32.1429 14.2857 32.1429H3.57143ZM39.2857 3.57143C39.2857 1.59598 37.6897 0 35.7143 0C33.7388 0 32.1429 1.59598 32.1429 3.57143V14.2857C32.1429 16.2612 33.7388 17.8571 35.7143 17.8571H46.4286C48.404 17.8571 50 16.2612 50 14.2857C50 12.3103 48.404 10.7143 46.4286 10.7143H39.2857V3.57143ZM35.7143 32.1429C33.7388 32.1429 32.1429 33.7388 32.1429 35.7143V46.4286C32.1429 48.404 33.7388 50 35.7143 50C37.6897 50 39.2857 48.404 39.2857 46.4286V39.2857H46.4286C48.404 39.2857 50 37.6897 50 35.7143C50 33.7388 48.404 32.1429 46.4286 32.1429H35.7143Z" fill="white"/>
</svg>
