<svg width="23" height="20" viewBox="0 0 23 20" fill="none" xmlns="http://www.w3.org/2000/svg">
<path d="M17.64 0.107276C18.1642 -0.111149 18.7627 0.0111688 19.1646 0.408702L21.9605 3.20454C22.2226 3.46665 22.3711 3.8205 22.3711 4.19182C22.3711 4.56315 22.2226 4.917 21.9605 5.1791L19.1646 7.97495C18.7627 8.37685 18.1642 8.4948 17.64 8.27637C17.1158 8.05795 16.775 7.5512 16.775 6.9833V5.59411H15.3771C14.9359 5.59411 14.5209 5.79943 14.2588 6.15328L12.4065 8.62148L10.6591 6.29307L12.0221 4.47578C12.8128 3.4186 14.0578 2.79827 15.3771 2.79827H16.775V1.40035C16.775 0.836815 17.1158 0.325701 17.64 0.107276ZM7.16434 10.9543L8.91174 13.2827L7.54877 15.1C6.75807 16.1571 5.51305 16.7775 4.19376 16.7775H1.39792C0.624696 16.7775 0 16.1528 0 15.3796C0 14.6063 0.624696 13.9816 1.39792 13.9816H4.19376C4.63498 13.9816 5.04999 13.7763 5.3121 13.4225L7.16434 10.9543ZM19.1602 19.167C18.7583 19.5689 18.1599 19.6869 17.6356 19.4685C17.1114 19.25 16.7707 18.7433 16.7707 18.1754V16.7775H15.3771C14.0578 16.7775 12.8128 16.1571 12.0221 15.1L5.3121 6.15328C5.04999 5.79943 4.63498 5.59411 4.19376 5.59411H1.39792C0.624696 5.59411 0 4.96942 0 4.19619C0 3.42297 0.624696 2.79827 1.39792 2.79827H4.19376C5.51305 2.79827 6.75807 3.4186 7.54877 4.47578L14.2588 13.4225C14.5209 13.7763 14.9359 13.9816 15.3771 13.9816H16.775V12.5837C16.775 12.0202 17.1158 11.5091 17.64 11.2906C18.1642 11.0722 18.7627 11.1945 19.1646 11.5921L21.9605 14.3879C22.2226 14.65 22.3711 15.0039 22.3711 15.3752C22.3711 15.7465 22.2226 16.1004 21.9605 16.3625L19.1646 19.1583L19.1602 19.167Z" fill="white"/>
</svg>
