<svg width="34" height="31" viewBox="0 0 34 31" fill="none" xmlns="http://www.w3.org/2000/svg">
<path d="M21.0964 13.425H18.3095C15.6125 13.425 13.425 15.6125 13.425 18.3095C13.425 19.646 14.0423 20.3652 14.5757 20.7368C14.9832 21.0185 15.3428 21.456 15.3428 21.9534C15.3428 22.5408 14.8634 23.0202 14.276 23.0202H14.1262C13.9824 23.0202 13.8385 22.9963 13.7007 22.9363C12.6339 22.4629 7.67142 19.9816 7.67142 14.3839C7.67142 9.61924 11.5371 5.75356 16.3018 5.75356H21.0964V2.07967C21.0964 0.928961 22.0254 0 23.1761 0C23.6915 0 24.1829 0.191785 24.5665 0.533403L32.8492 7.98906C33.3047 8.39661 33.5624 8.97796 33.5624 9.58927C33.5624 10.2006 33.3047 10.7819 32.8492 11.1895L24.5186 18.6871C24.165 19.0047 23.7095 19.1785 23.236 19.1785H23.0142C21.9534 19.1785 21.0964 18.3215 21.0964 17.2607V13.425ZM4.79464 5.75356C4.26723 5.75356 3.83571 6.18508 3.83571 6.71249V25.891C3.83571 26.4184 4.26723 26.85 4.79464 26.85H23.9732C24.5006 26.85 24.9321 26.4184 24.9321 25.891V23.0143C24.9321 21.9534 25.7891 21.0964 26.85 21.0964C27.9108 21.0964 28.7678 21.9534 28.7678 23.0143V25.891C28.7678 28.5401 26.6222 30.6857 23.9732 30.6857H4.79464C2.1456 30.6857 0 28.5401 0 25.891V6.71249C0 4.06345 2.1456 1.91785 4.79464 1.91785H7.67142C8.73223 1.91785 9.58927 2.7749 9.58927 3.83571C9.58927 4.89652 8.73223 5.75356 7.67142 5.75356H4.79464Z" fill="white"/>
</svg>
