<svg width="84" height="65" viewBox="0 0 84 65" fill="none" xmlns="http://www.w3.org/2000/svg">
<path d="M78.1102 34.117C85.9633 26.3083 85.9633 13.6624 78.1102 5.85377C71.1606 -1.05657 60.208 -1.95491 52.2159 3.72538L51.9935 3.87741C49.9921 5.30094 49.5334 8.06507 50.965 10.0414C52.3966 12.0178 55.1765 12.4877 57.1641 11.0642L57.3865 10.9121C61.8481 7.7472 67.9499 8.24474 71.8139 12.1007C76.1921 16.4542 76.1921 23.5027 71.8139 27.8563L56.2189 43.3907C51.8407 47.7442 44.752 47.7442 40.3738 43.3907C36.4959 39.5347 35.9955 33.4674 39.1785 29.0448L39.3313 28.8237C40.763 26.8335 40.2904 24.0694 38.3028 22.6597C36.3152 21.25 33.5215 21.7061 32.1037 23.6824L31.9509 23.9035C26.2244 31.8366 27.1278 42.7273 34.0774 49.6376C41.9305 57.4463 54.6483 57.4463 62.5014 49.6376L78.1102 34.117ZM5.8898 30.883C-1.96327 38.6917 -1.96327 51.3376 5.8898 59.1462C12.8394 66.0566 23.792 66.9549 31.7841 61.2746L32.0065 61.1226C34.0079 59.6991 34.4666 56.9349 33.035 54.9586C31.6034 52.9822 28.8235 52.5123 26.8359 53.9358L26.6136 54.0879C22.1519 57.2528 16.0501 56.7553 12.1862 52.8993C7.80789 48.532 7.80789 41.4834 12.1862 37.1299L27.7811 21.6093C32.1593 17.2558 39.248 17.2558 43.6262 21.6093C47.5041 25.4653 48.0045 31.5326 44.8215 35.969L44.6687 36.1901C43.237 38.1803 43.7096 40.9444 45.6972 42.3541C47.6848 43.7638 50.4785 43.3078 51.8963 41.3314L52.0491 41.1103C57.7756 33.1634 56.8722 22.2727 49.9226 15.3624C42.0695 7.55371 29.3517 7.55371 21.4986 15.3624L5.8898 30.883Z" fill="#ED145B"/>
</svg>
