<svg width="25" height="25" viewBox="0 0 25 25" fill="none" xmlns="http://www.w3.org/2000/svg">
<rect x="1" y="1" width="23" height="23" fill="#D9D9D9" stroke="#ED145B" stroke-width="2"/>
<path d="M8.3004 9.73341C7.9041 9.33711 7.9041 8.69352 8.3004 8.29722C8.69669 7.90093 9.34029 7.90093 9.73658 8.29722L13.075 11.6388L16.4166 8.3004C16.8129 7.9041 17.4565 7.9041 17.8528 8.3004C18.2491 8.69669 18.2491 9.34028 17.8528 9.73658L14.5112 13.075L17.8496 16.4166C18.2459 16.8129 18.2459 17.4565 17.8496 17.8528C17.4533 18.2491 16.8097 18.2491 16.4134 17.8528L13.075 14.5112L9.73341 17.8496C9.33712 18.2459 8.69352 18.2459 8.29722 17.8496C7.90092 17.4533 7.90092 16.8097 8.29722 16.4134L11.6388 13.075L8.3004 9.73341Z" fill="#EE2452"/>
</svg>
