<svg width="145" height="142" viewBox="0 0 145 142" fill="none" xmlns="http://www.w3.org/2000/svg">
<path fill-rule="evenodd" clip-rule="evenodd" d="M74.7408 4.96C89.4308 4.96 104.041 11.82 117.021 24.78C122.528 30.2874 126.929 36.0845 130.172 42.0572C122.238 33.9826 111.28 28.7066 97.76 26.6642L97.7408 26.65L97.7287 26.6482C88.9663 20.1622 79.7777 16.7813 70.7558 16.78C59.4376 16.7815 48.6294 21.8515 38.6308 31.83C28.5608 41.9 23.3608 53.3 23.6008 64.77C23.6631 67.7097 24.0643 70.6356 24.8019 73.5427C24.4824 76.4096 24.3208 79.3931 24.3208 82.49C24.3208 110.844 37.8647 129.706 62.2247 136.484C49.2483 135.095 36.7664 128.477 25.0408 116.76C18.1308 109.85 12.9308 102.57 9.57081 95.13C6.32081 87.92 4.78081 80.49 4.99081 73.04C5.21081 65.56 7.20081 57.98 10.9008 50.5C14.7308 42.76 20.4308 35.1 27.8208 27.71C42.7108 12.82 58.9308 4.95 74.7408 4.95V4.96ZM83.6653 139.277C78.2864 140.91 72.8597 141.73 67.4008 141.73C51.2008 141.73 35.7708 134.51 21.5308 120.27C-8.11919 90.64 -7.09919 55.62 24.3008 24.21C40.1508 8.37 57.5908 0 74.7408 0C90.7708 0 106.601 7.36 120.521 21.28C132.51 33.2522 139.611 46.6138 141.372 60.3246C143.668 66.8996 144.861 74.3159 144.861 82.49C144.861 118.05 122.731 139.28 84.4908 139.28C84.2148 139.28 83.9396 139.279 83.6653 139.277ZM139.883 81.3883C139.888 81.7507 139.891 82.1146 139.891 82.48C139.891 90.65 138.621 98.08 136.111 104.57C133.691 110.83 130.101 116.22 125.441 120.6C118.38 127.246 108.773 131.569 97.2493 133.364C104.142 129.441 110.931 124.144 117.581 117.49C129.012 106.073 136.568 93.7838 139.883 81.3883ZM136.513 61.4761C136.383 61.1145 136.249 60.7558 136.111 60.4C133.681 54.14 130.091 48.75 125.441 44.37C121.615 40.7686 117.04 37.8491 111.819 35.6444C120.76 42.5156 126.853 53.6898 129.501 68.72C131.248 78.6202 130.941 87.5346 128.739 95.2223C133.804 86.4208 136.554 77.42 136.821 68.55C136.894 66.1883 136.79 63.8283 136.513 61.4761ZM86.8307 25.7375C81.4753 23.0974 76.0702 21.74 70.7608 21.74V21.73C60.8008 21.73 51.1708 26.31 42.1408 35.33C36.0879 41.383 31.9861 47.8961 29.9796 54.5455C38.7894 35.9377 57.6082 25.71 84.4808 25.71H84.4908C85.2774 25.71 86.0574 25.7192 86.8307 25.7375ZM29.8306 73.0983C31.3427 61.0013 35.9119 51.3017 43.4608 44.17C46.8296 40.9911 50.8019 38.341 55.319 36.2625C40.7956 45.7954 34.8304 62.6157 38.7308 84.73C39.1445 87.0771 39.6476 89.3326 40.237 91.4942C35.0391 85.4514 31.5598 79.2971 29.8306 73.0983ZM29.2982 84.6274C32.0635 89.5609 35.8284 94.4175 40.5808 99.17C41.8885 100.478 43.2114 101.713 44.5477 102.874L44.5709 102.92L44.5867 102.934C52.1574 117.821 65.2838 125.92 82.2108 125.92C85.5408 125.92 89.0108 125.61 92.6208 124.97C97.8863 124.042 102.65 122.564 106.882 120.579C99.0233 127.137 91.0292 131.716 82.9582 134.29L82.9509 134.29L82.9265 134.298C74.6239 134.167 67.103 132.983 60.5308 130.77C53.8208 128.51 48.0808 125.15 43.4608 120.8C34.462 112.298 29.6974 100.139 29.2982 84.6274ZM56.5909 111.17L56.5863 111.175C56.7366 111.321 56.8881 111.466 57.0408 111.61C63.6308 117.82 72.1008 120.96 82.2208 120.96C85.2708 120.96 88.4808 120.67 91.7708 120.09C117.511 115.55 129.481 97.14 124.621 69.58C123.484 63.144 121.699 57.4948 119.282 52.6667C126.492 69.273 122.769 86.4818 108.021 101.23C98.2708 110.99 87.1608 116.15 75.9208 116.15C69.4678 116.15 62.954 114.455 56.5845 111.164L56.5909 111.17ZM99.7594 34.7197C100.665 35.5392 101.566 36.3961 102.461 37.29C112.231 47.06 117.561 57.72 117.871 68.14C118.191 78.44 113.571 88.66 104.521 97.71C95.7108 106.52 85.8308 111.17 75.9308 111.17C66.7931 111.17 57.3987 107.232 48.5202 99.7254C46.3109 95.1209 44.6763 89.8257 43.6308 83.87C41.1708 69.95 42.8108 58.5 48.5008 49.85C54.1308 41.3 63.5508 35.8 76.5108 33.52C79.9608 32.9 83.3108 32.6 86.4708 32.6V32.61C91.3014 32.61 95.7393 33.3154 99.7594 34.7197ZM60 55C60 52.2386 62.2386 50 65 50H66.8621C69.6235 50 71.8621 52.2386 71.8621 55V88C71.8621 90.7614 69.6235 93 66.8621 93H65C62.2386 93 60 90.7614 60 88V55ZM94.6552 50C91.8937 50 89.6552 52.2386 89.6552 55V88C89.6552 90.7614 91.8938 93 94.6552 93H96.5172C99.2787 93 101.517 90.7614 101.517 88V55C101.517 52.2386 99.2787 50 96.5172 50H94.6552Z" fill="white"/>
<path fill-rule="evenodd" clip-rule="evenodd" d="M74.7408 4.96C89.4308 4.96 104.041 11.82 117.021 24.78C122.528 30.2874 126.929 36.0845 130.172 42.0572C122.238 33.9826 111.28 28.7066 97.76 26.6642L97.7408 26.65L97.7287 26.6482C88.9663 20.1622 79.7777 16.7813 70.7558 16.78C59.4376 16.7815 48.6294 21.8515 38.6308 31.83C28.5608 41.9 23.3608 53.3 23.6008 64.77C23.6631 67.7097 24.0643 70.6356 24.8019 73.5427C24.4824 76.4096 24.3208 79.3931 24.3208 82.49C24.3208 110.844 37.8647 129.706 62.2247 136.484C49.2483 135.095 36.7664 128.477 25.0408 116.76C18.1308 109.85 12.9308 102.57 9.57081 95.13C6.32081 87.92 4.78081 80.49 4.99081 73.04C5.21081 65.56 7.20081 57.98 10.9008 50.5C14.7308 42.76 20.4308 35.1 27.8208 27.71C42.7108 12.82 58.9308 4.95 74.7408 4.95V4.96ZM83.6653 139.277C78.2864 140.91 72.8597 141.73 67.4008 141.73C51.2008 141.73 35.7708 134.51 21.5308 120.27C-8.11919 90.64 -7.09919 55.62 24.3008 24.21C40.1508 8.37 57.5908 0 74.7408 0C90.7708 0 106.601 7.36 120.521 21.28C132.51 33.2522 139.611 46.6138 141.372 60.3246C143.668 66.8996 144.861 74.3159 144.861 82.49C144.861 118.05 122.731 139.28 84.4908 139.28C84.2148 139.28 83.9396 139.279 83.6653 139.277ZM139.883 81.3883C139.888 81.7507 139.891 82.1146 139.891 82.48C139.891 90.65 138.621 98.08 136.111 104.57C133.691 110.83 130.101 116.22 125.441 120.6C118.38 127.246 108.773 131.569 97.2493 133.364C104.142 129.441 110.931 124.144 117.581 117.49C129.012 106.073 136.568 93.7838 139.883 81.3883ZM136.513 61.4761C136.383 61.1145 136.249 60.7558 136.111 60.4C133.681 54.14 130.091 48.75 125.441 44.37C121.615 40.7686 117.04 37.8491 111.819 35.6444C120.76 42.5156 126.853 53.6898 129.501 68.72C131.248 78.6202 130.941 87.5346 128.739 95.2223C133.804 86.4208 136.554 77.42 136.821 68.55C136.894 66.1883 136.79 63.8283 136.513 61.4761ZM86.8307 25.7375C81.4753 23.0974 76.0702 21.74 70.7608 21.74V21.73C60.8008 21.73 51.1708 26.31 42.1408 35.33C36.0879 41.383 31.9861 47.8961 29.9796 54.5455C38.7894 35.9377 57.6082 25.71 84.4808 25.71H84.4908C85.2774 25.71 86.0574 25.7192 86.8307 25.7375ZM29.8306 73.0983C31.3427 61.0013 35.9119 51.3017 43.4608 44.17C46.8296 40.9911 50.8019 38.341 55.319 36.2625C40.7956 45.7954 34.8304 62.6157 38.7308 84.73C39.1445 87.0771 39.6476 89.3326 40.237 91.4942C35.0391 85.4514 31.5598 79.2971 29.8306 73.0983ZM29.2982 84.6274C32.0635 89.5609 35.8284 94.4175 40.5808 99.17C41.8885 100.478 43.2114 101.713 44.5477 102.874L44.5709 102.92L44.5867 102.934C52.1574 117.821 65.2838 125.92 82.2108 125.92C85.5408 125.92 89.0108 125.61 92.6208 124.97C97.8863 124.042 102.65 122.564 106.882 120.579C99.0233 127.137 91.0292 131.716 82.9582 134.29L82.9509 134.29L82.9265 134.298C74.6239 134.167 67.103 132.983 60.5308 130.77C53.8208 128.51 48.0808 125.15 43.4608 120.8C34.462 112.298 29.6974 100.139 29.2982 84.6274ZM56.5909 111.17L56.5863 111.175C56.7366 111.321 56.8881 111.466 57.0408 111.61C63.6308 117.82 72.1008 120.96 82.2208 120.96C85.2708 120.96 88.4808 120.67 91.7708 120.09C117.511 115.55 129.481 97.14 124.621 69.58C123.484 63.144 121.699 57.4948 119.282 52.6667C126.492 69.273 122.769 86.4818 108.021 101.23C98.2708 110.99 87.1608 116.15 75.9208 116.15C69.4678 116.15 62.954 114.455 56.5845 111.164L56.5909 111.17ZM99.7594 34.7197C100.665 35.5392 101.566 36.3961 102.461 37.29C112.231 47.06 117.561 57.72 117.871 68.14C118.191 78.44 113.571 88.66 104.521 97.71C95.7108 106.52 85.8308 111.17 75.9308 111.17C66.7931 111.17 57.3987 107.232 48.5202 99.7254C46.3109 95.1209 44.6763 89.8257 43.6308 83.87C41.1708 69.95 42.8108 58.5 48.5008 49.85C54.1308 41.3 63.5508 35.8 76.5108 33.52C79.9608 32.9 83.3108 32.6 86.4708 32.6V32.61C91.3014 32.61 95.7393 33.3154 99.7594 34.7197ZM60 55C60 52.2386 62.2386 50 65 50H66.8621C69.6235 50 71.8621 52.2386 71.8621 55V88C71.8621 90.7614 69.6235 93 66.8621 93H65C62.2386 93 60 90.7614 60 88V55ZM94.6552 50C91.8937 50 89.6552 52.2386 89.6552 55V88C89.6552 90.7614 91.8938 93 94.6552 93H96.5172C99.2787 93 101.517 90.7614 101.517 88V55C101.517 52.2386 99.2787 50 96.5172 50H94.6552Z" fill="url(#paint0_radial_2_117)"/>
<defs>
<radialGradient id="paint0_radial_2_117" cx="0" cy="0" r="1" gradientUnits="userSpaceOnUse" gradientTransform="translate(128.5 17.5) rotate(136.159) scale(157.363 278.214)">
<stop stop-color="#009B90"/>
<stop offset="0.066929" stop-color="#339A7A"/>
<stop offset="0.152061" stop-color="#A99948"/>
<stop offset="0.203261" stop-color="#CE9938"/>
<stop offset="0.285868" stop-color="#DC9832"/>
<stop offset="0.391704" stop-color="#F58220"/>
<stop offset="0.455613" stop-color="#F36C2C"/>
<stop offset="0.583191" stop-color="#EE2452"/>
<stop offset="0.648754" stop-color="#ED145B"/>
<stop offset="0.777896" stop-color="#CD4382"/>
<stop offset="0.881622" stop-color="#C2538F"/>
<stop offset="1" stop-color="#745195"/>
</radialGradient>
</defs>
</svg>
